<svg xmlns="http://www.w3.org/2000/svg" xmlns:xlink="http://www.w3.org/1999/xlink" viewBox="0 0 386 375"><defs><style>.cls-1{fill:#206feb;}.cls-2{fill:url(#linear-gradient);}.cls-3{fill:#fff;}</style><linearGradient id="linear-gradient" x1="198.85" y1="243.11" x2="275.87" y2="145.15" gradientUnits="userSpaceOnUse"><stop offset="0" stop-color="#b2b2b2"/><stop offset="0.01" stop-color="#b5b5b5"/><stop offset="0.15" stop-color="#d0d0d0"/><stop offset="0.31" stop-color="#e5e5e5"/><stop offset="0.48" stop-color="#f4f4f4"/><stop offset="0.68" stop-color="#fcfcfc"/><stop offset="1" stop-color="#fff"/></linearGradient></defs><g id="Layer_2" data-name="Layer 2"><g id="Layer_1-2" data-name="Layer 1"><path class="cls-1" d="M63.44,0H322.56A63.44,63.44,0,0,1,386,63.44V375a0,0,0,0,1,0,0H63.44A63.44,63.44,0,0,1,0,311.56V63.44A63.44,63.44,0,0,1,63.44,0Z"/><path class="cls-2" d="M305.85,108.34a36.49,36.49,0,0,1-2.5,12.52l-28.88,74.3-42.34,109c0,.09-.07.18-.11.26a36.82,36.82,0,0,1-68.53-26.95L179.6,236,184,224.61,195.52,195,213,150.17l21.76-56a36.83,36.83,0,0,1,71.14,14.16Z"/><path class="cls-3" d="M212.94,324.29a36.83,36.83,0,0,1-48.69-18.46L83.56,126.54A36.84,36.84,0,0,1,119.5,74.67a36.21,36.21,0,0,1,4.53.59,36.74,36.74,0,0,1,26.68,21l78.86,175.2,1.84,4.08A36.84,36.84,0,0,1,212.94,324.29Z"/></g></g></svg>